<svg viewBox="0 0 24 24" xmlns="http://www.w3.org/2000/svg" id="cart-remove" class="icon glyph" fill="#000000"><g id="SVGRepo_bgCarrier" stroke-width="0"></g><g id="SVGRepo_tracerCarrier" stroke-linecap="round" stroke-linejoin="round"></g><g id="SVGRepo_iconCarrier"><path d="M18.22,17H9.8a2,2,0,0,1-2-1.55L5.2,4H3A1,1,0,0,1,3,2H5.2a2,2,0,0,1,2,1.55L9.8,15h8.42L20,7.76A1,1,0,0,1,22,8.24l-1.81,7.25A2,2,0,0,1,18.22,17ZM16.5,19A1.5,1.5,0,1,0,18,20.5,1.5,1.5,0,0,0,16.5,19Zm-5,0A1.5,1.5,0,1,0,13,20.5,1.5,1.5,0,0,0,11.5,19ZM18,8a1,1,0,0,0-1-1H11a1,1,0,0,0,0,2h6A1,1,0,0,0,18,8Z" style="fill:#231f20"></path></g></svg>