<svg xmlns="http://www.w3.org/2000/svg" version="1.1" xmlns:xlink="http://www.w3.org/1999/xlink" xmlns:svgjs="http://svgjs.dev/svgjs" width="1440" height="560" preserveAspectRatio="none" viewBox="0 0 1440 560">
    <g mask="url(&quot;#SvgjsMask1061&quot;)" fill="none">
        <rect width="1440" height="560" x="0" y="0" fill="rgba(234, 244, 244, 1)"></rect>
        <path d="M0,376.432C69.326,370.277,112.018,299.376,159.992,248.953C197.987,209.019,223.162,162.349,249.668,114.019C278.435,61.568,321.117,13.533,321.915,-46.284C322.762,-109.784,298.898,-175.163,254.124,-220.2C210.371,-264.21,141.198,-261.893,83.891,-285.706C17.632,-313.239,-40.885,-393.759,-108.956,-371.071C-177.733,-348.148,-176.134,-247.456,-214.824,-186.146C-246.172,-136.47,-304.829,-103.155,-314.577,-45.229C-324.386,13.063,-289.388,67.211,-266.639,121.77C-243.084,178.264,-223.618,236.807,-179.355,279.082C-129.146,327.036,-69.158,382.572,0,376.432" fill="#7cbbbb"></path>
        <path d="M1440 1114.463C1542.94 1102.934 1628.799 1044.467 1720.966 997.192 1823.891 944.399 1943.422 914.423 2011.839 821.15 2086.649 719.162 2135.699 587.651 2112.59 463.296 2089.703 340.132 1968.752 267.448 1890.733 169.437 1808.59 66.24599999999998 1770.551-98.45899999999995 1641.9850000000001-127.89700000000005 1512.313-157.58799999999997 1404.042-27.855000000000018 1284.567 30.644000000000005 1187.366 78.23700000000002 1086.4479999999999 111.62099999999998 1005.681 183.661 915.985 263.665 820.462 349.796 795.047 467.27 769.043 587.467 809.622 712.962 867.722 821.35 923.573 925.544 1010.232 1011.114 1115.452 1065.0059999999999 1214.865 1115.924 1329 1126.894 1440 1114.463" fill="#ffffff"></path>
    </g>
    <defs>
        <mask id="SvgjsMask1061">
            <rect width="1440" height="560" fill="#ffffff"></rect>
        </mask>
    </defs>
</svg>